<svg xmlns="http://www.w3.org/2000/svg" xmlns:xlink="http://www.w3.org/1999/xlink" version="1.1" x="0px" y="0px" viewBox="0 0 100 125" enable-background="new 0 0 100 100" xml:space="preserve"><path fill="#fff" d="M50,5C31.503,5,16.509,19.997,16.509,38.491c0,20.61,29.44,54.583,29.44,54.583c2.227,2.568,5.873,2.568,8.099,0  c0,0,29.442-33.973,29.442-54.583C83.491,19.997,68.498,5,50,5z M50,52.634c-7.81,0-14.143-6.333-14.143-14.143  c0-7.811,6.333-14.14,14.143-14.14c7.813,0,14.143,6.33,14.143,14.14C64.143,46.3,57.813,52.634,50,52.634z"/></svg>